<svg width="864" height="240" viewBox="0 0 864 240" fill="none" xmlns="http://www.w3.org/2000/svg">
<path d="M27.6799 50.5469V45.89L10.1075 31.1066L27.6799 16.3239V11.667H19.3602L0 28.6952V33.5187L19.3602 50.5469H27.6799Z" fill="#D8CCE0"/>
<path d="M33.5229 46.0405L38.0301 50.5469H50.1617V40.9118H45.18V21.3021H50.1617V11.667H38.0301L33.5229 16.1734V46.0405ZM53.2754 50.5469H65.4063L69.9142 46.0405V16.1734L65.4063 11.667H53.2754V21.3021H58.2571V40.9118H53.2754V50.5469Z" fill="#D8CCE0"/>
<path d="M96.7568 50.5469H108.184L110.203 33.8288V11.667H102.746L96.7568 46.115V50.5469ZM113.325 33.9841L117.366 50.5469H127.706L131.748 33.9841V11.667H127.706L122.497 34.6836L117.366 11.667H113.325V33.9841ZM134.869 33.8288L136.889 50.5469H148.315V46.115L142.326 11.667H134.869V33.8288Z" fill="#D8CCE0"/>
<path d="M152.993 46.0405L157.5 50.5469H168.776V40.9118H164.65V11.667H152.993V46.0405ZM171.89 50.5469H183.087L187.595 46.0405V11.667H175.938V40.9118H171.89V50.5469Z" fill="#D8CCE0"/>
<path d="M193.827 50.5469H205.484V11.667H193.827V50.5469ZM208.598 35.3839L216.693 50.5469H229.518V11.667H217.861V33.8288L208.598 16.5657V35.3839Z" fill="#D8CCE0"/>
<path d="M235.75 50.5469H251.143V40.9118H247.408V21.3021H251.143V11.667H235.75V50.5469ZM254.257 50.5469H267.634L272.142 46.0405V25.2707L259.317 11.667H254.257V22.0796L260.484 29.0059V40.9118H254.257V50.5469Z" fill="#D8CCE0"/>
<path d="M278.373 46.0405L282.881 50.5469H295.012V40.9118H290.03V21.3021H295.012V11.667H282.881L278.373 16.1734V46.0405ZM298.126 50.5469H310.257L314.764 46.0405V16.1734L310.257 11.667H298.126V21.3021H303.107V40.9118H298.126V50.5469Z" fill="#D8CCE0"/>
<path d="M347.598 8.32252H352.725L373.255 5.21089V0H368.125L347.598 3.11092V8.32252ZM344.331 46.0403L348.838 50.5468H355.988V11.6669H344.331V46.0403ZM359.108 20.6017H376.444V11.6669H359.108V20.6017ZM359.108 34.7573H375.044V27.0675H359.108V34.7573ZM359.108 50.5468H376.444V41.6119H359.108V50.5468Z" fill="#D8CCE0"/>
<path d="M404.454 21.3021H440.767V11.667H404.454V21.3021ZM416.821 50.5469H428.478V24.413H416.821V50.5469Z" fill="#D8CCE0"/>
<path d="M444.666 46.0405L449.173 50.5469H456.323V11.667H444.666V46.0405ZM459.444 20.6019H476.779V11.667H459.444V20.6019ZM459.444 34.7575H475.379V27.0677H459.444V34.7575ZM459.444 50.5469H476.779V41.6121H459.444V50.5469Z" fill="#D8CCE0"/>
<path d="M483.012 46.0405L487.519 50.5469H499.962V40.9118H494.669V21.3021H499.962V11.667H487.519L483.012 16.1734V46.0405ZM503.078 21.3021H506.656V25.9709H517.614V11.667H503.078V21.3021ZM503.078 50.5469H517.614V40.9118H503.078V50.5469Z" fill="#D8CCE0"/>
<path d="M523.846 50.5469H535.503V11.667H523.846V50.5469ZM538.616 35.9245H548.579V50.5469H560.236V11.667H548.579V26.2894H538.616V35.9245Z" fill="#D8CCE0"/>
<path d="M717.826 156.587H737.468L790.437 121.329V111.341L737.468 76.085H717.826V85.7278L763.067 116.336L717.826 146.945V156.587Z" fill="#D8CCE0"/>
<path d="M172.281 156.587H152.639L99.6709 121.329V111.341L152.639 76.085H172.281V85.7278L127.04 116.336L172.281 146.945V156.587Z" fill="#D8CCE0"/>
<path d="M179.535 148.814H205.956V128.652H272.397L281.974 119.076V75.7821L272.397 66.2061H179.535V148.814ZM205.956 106.694V88.3299H255.554V106.694H205.956Z" fill="#D8CCE0"/>
<path d="M285.479 148.814H303.309V127.96H310.115L332.874 148.814H351.934V142.694L333.767 127.96H348.145L354.608 121.499V99.5302L348.145 93.0679H285.479V148.814ZM303.309 114.815V107.998H336.779V114.815H303.309Z" fill="#D8CCE0"/>
<path d="M361.87 148.814H422.523V134.888H401.111V106.994H422.523V93.0679H361.87V106.994H383.282V134.888H361.87V148.814Z" fill="#D8CCE0"/>
<path d="M429.786 148.814H447.615V113.471L474.838 148.814H497.688V93.0679H479.859V128.968L451.632 93.0679H429.786V148.814Z" fill="#D8CCE0"/>
<path d="M529.931 148.814H547.76V107.998H574.302V93.0679H503.278V107.998H529.931V148.814Z" fill="#D8CCE0"/>
<path d="M579.893 180.688H607.916V151.24H666.637V130.579H607.916V116.534H682.237V93.0679H590.051L579.893 103.225V180.688Z" fill="#D8CCE0"/>
<path d="M672.67 160.077H685.267L710.573 88.495V81.8042H698.087L672.67 153.276V160.077Z" fill="#D8CCE0"/>
<path d="M351.624 235.448L356.178 240H363.401V200.724H351.624V235.448ZM366.553 209.749H384.065V200.724H366.553V209.749ZM366.553 224.05H382.65V216.281H366.553V224.05ZM366.553 240H384.065V230.974H366.553V240Z" fill="#D8CCE0"/>
<path d="M413.933 240H425.708V200.724H413.933V240ZM428.854 224.682L437.032 240H449.987V200.724H438.211V223.111L428.854 205.672V224.682Z" fill="#D8CCE0"/>
<path d="M461.705 197.345H466.886L487.623 194.201V188.937H482.442L461.705 192.08V197.345ZM456.283 235.447L460.836 240H473.087V230.266H468.059V210.456H473.087V200.723H460.84L456.283 205.276V235.447ZM476.24 240H488.488L493.045 235.447V205.276L488.492 200.723H476.24V210.456H481.269V230.266H476.24V240Z" fill="#D8CCE0"/>
<path d="M499.341 217.217L504.679 222.563L522.755 225.314V230.267H518.513V240H529.976L534.531 235.447V223.034L529.35 217.846L511.117 215.016V210.456H515.359V200.724H503.895L499.341 205.276V217.217ZM518.513 210.456H531.624V200.724H518.513V210.456ZM499.341 240H515.359V230.267H499.341V240Z" fill="#D8CCE0"/>
<path d="M562.827 210.456H599.511V200.724H562.827V210.456ZM575.32 240H587.096V213.6H575.32V240Z" fill="#D8CCE0"/>
<path d="M614.911 200.724H609.814L594.806 235.364V240H605.885L614.911 214.945V200.724ZM623.161 200.724H618.064V214.945L621.201 223.588H615.069L611.617 233.243H624.654L627.09 240H638.168V235.364L623.161 200.724Z" fill="#D8CCE0"/>
<path d="M642.104 240H653.647L655.687 223.111V200.724H648.154L642.104 235.522V240ZM658.839 223.268L662.923 240H673.367L677.451 223.268V200.724H673.367L668.106 223.975L662.923 200.724H658.839V223.268ZM680.604 223.111L682.644 240H694.187V235.522L688.138 200.724H680.604V223.111Z" fill="#D8CCE0"/>
<path d="M698.916 240H710.692V200.724H698.916V240ZM713.837 240H731.123L735.678 235.448V224.679L731.203 220.126L734.264 216.987V205.276L729.71 200.724H713.837V209.749H722.487V216.281H713.837V224.05H723.902V230.974H713.837V240Z" fill="#D8CCE0"/>
<path d="M744.88 197.345H750.059L770.799 194.201V188.937H765.617L744.88 192.08V197.345ZM741.58 235.448L746.133 240H753.356V200.723H741.58V235.448ZM756.508 209.749H774.02V200.723H756.508V209.749ZM756.508 224.049H772.606V216.281H756.508V224.049ZM756.508 240H774.02V230.974H756.508V240Z" fill="#D8CCE0"/>
<path d="M778.745 240H790.288L792.328 223.111V200.724H784.795L778.745 235.522V240ZM795.481 223.268L799.565 240H810.009L814.093 223.268V200.724H810.009L804.748 223.975L799.565 200.724H795.481V223.268ZM817.245 223.111L819.286 240H830.829V235.522L824.778 200.724H817.245V223.111Z" fill="#D8CCE0"/>
<path d="M835.55 240H843.954L863.512 222.798V217.925L843.954 200.724H835.55V205.428L853.301 220.361L835.55 235.295V240Z" fill="#D8CCE0"/>
</svg>
